<?xml version="1.0" encoding="UTF-8" standalone="no"?>
<!-- Created with Inkscape (http://www.inkscape.org/) -->

<svg
   width="16"
   height="16"
   viewBox="0 0 16 16"
   version="1.1"
   id="svg1"
   xmlns="http://www.w3.org/2000/svg"
   xmlns:svg="http://www.w3.org/2000/svg">
  <defs
     id="defs1" />
  <g
     transform="matrix(1.0864662,0,0,1.0864662,8,8)"
     id="g28">
    <path
       style="fill:none;stroke:#000000;stroke-width:1"
       d="M 3.07315,-0.82936 4.5397,-1.22514 4.61196,-1.23577 6.34005,-0.57646 V 0.57646 L 4.61196,1.23577 4.5397,1.22514 3.07315,0.82936 2.25483,2.24675 3.33085,3.31892 3.37619,3.37619 3.66925,5.20241 2.6708,5.77887 1.23577,4.61196 1.20885,4.54407 0.81833,3.07611 H -0.81833 L -1.20885,4.54407 -1.23577,4.61196 -2.6708,5.77887 -3.66925,5.20241 -3.37619,3.37619 -3.33085,3.31892 -2.25483,2.24675 -3.07315,0.82936 -4.5397,1.22514 -4.61196,1.23577 -6.34005,0.57646 v -1.15292 l 1.72809,-0.65931 0.07226,0.01063 1.46655,0.39578 0.81832,-1.41739 -1.07602,-1.07217 -0.04534,-0.05727 -0.29306,-1.82622 0.99845,-0.57646 1.43503,1.16691 0.02692,0.06789 0.39052,1.46796 h 1.63666 l 0.39052,-1.46796 0.02692,-0.06789 1.43503,-1.16691 0.99845,0.57646 -0.29306,1.82622 -0.04534,0.05727 -1.07602,1.07217 z"
       id="path27" />
    <circle
       style="fill:none;stroke:#000000;stroke-width:1"
       id="path28"
       cx="0"
       cy="0"
       r="6.5" />
  </g>
  <path
     style="fill:#ffffff;stroke-width:0.0279581;stroke-dasharray:none"
     d="m 4.8128065,13.455233 c -0.1233026,-0.07391 -0.1761137,-0.133061 -0.16513,-0.184957 0.00888,-0.04196 0.058679,-0.35108 0.110661,-0.686927 l 0.094513,-0.610631 0.6984122,-0.704613 c 0.540008,-0.544804 0.6916455,-0.722248 0.668578,-0.78236 C 6.1976722,10.427974 5.0029823,8.3300731 4.9477984,8.252011 4.9426241,8.2446913 4.5105555,8.3541311 3.9876461,8.4952103 L 3.0369016,8.7517178 2.3471636,8.4900958 1.6574255,8.2284734 V 8.0014807 7.7744875 L 2.3493472,7.5109857 3.0412689,7.2474838 3.9740603,7.5016434 c 0.70317,0.1915945 0.9446926,0.2417142 0.9811372,0.2036026 0.067936,-0.071044 1.2819563,-2.1877568 1.2819563,-2.2351636 0,-0.021379 -0.3118345,-0.3531254 -0.6929656,-0.737215 L 4.8512225,4.0345226 4.7559453,3.4020839 C 4.7035429,3.0542426 4.6571773,2.7420743 4.6529106,2.7083766 4.648644,2.6746788 4.7350945,2.593768 4.845023,2.5285747 L 5.044893,2.4100415 5.6093957,2.8709538 6.1738982,3.3318661 6.3804474,4.1193589 C 6.4940491,4.55248 6.6073411,4.9804546 6.6322073,5.0704135 l 0.045211,0.1635618 h 1.322144 1.3221441 L 9.5273899,4.4597831 C 9.6405157,4.0339774 9.7561216,3.6043203 9.7842926,3.5049896 9.8287713,3.3481562 9.9095211,3.2643538 10.397876,2.8682131 l 0.562365,-0.4561752 0.190019,0.1062038 c 0.226809,0.1267659 0.224881,0.1057781 0.08646,0.941422 L 11.13687,4.0624491 10.445412,4.7549209 C 9.7687629,5.4325673 9.7551092,5.4499163 9.8076675,5.5652693 c 0.037818,0.083003 1.1688085,2.0646345 1.2479485,2.1865586 0.0035,0.00545 0.434829,-0.1057913 0.958427,-0.2471993 l 0.951996,-0.2571056 0.659176,0.252361 0.659176,0.2523609 0.01296,0.2414524 0.01296,0.241452 -0.427313,0.1632586 C 13.647977,8.4881999 13.347032,8.6047626 13.214233,8.657436 L 12.972781,8.753206 12.020367,8.4964066 C 11.49654,8.3551669 11.063146,8.2453926 11.05727,8.2524637 10.9921,8.3308817 9.7700951,10.489581 9.7700951,10.526288 c 0,0.02734 0.3075269,0.35769 0.6833929,0.734108 l 0.683394,0.684396 0.09985,0.602785 c 0.138301,0.834931 0.140576,0.810916 -0.0883,0.932335 L 10.956562,13.581693 10.393659,13.128917 9.8307555,12.676141 9.6630057,12.040922 C 9.5707433,11.691553 9.4567033,11.263406 9.409584,11.089485 L 9.3239126,10.773266 H 7.9994464 6.6749802 l -0.0248,0.09814 c -0.01364,0.05397 -0.1270277,0.480053 -0.2519718,0.94684 l -0.2271714,0.8487 -0.5448597,0.448176 c -0.2996728,0.246498 -0.5644871,0.448311 -0.5884761,0.448475 -0.023989,1.63e-4 -0.1251916,-0.0486 -0.2248947,-0.108364 z"
     id="path41" />
  <path
     style="fill:#ffffff;stroke-width:0.0279581;stroke-dasharray:none"
     d="M 7.5009467,3.9145773 C 7.320091,3.2170555 7.1829781,2.7569498 7.1329911,2.6798401 7.1009718,2.6304473 6.857357,2.4150527 6.5916249,2.2011855 6.2299695,1.9101169 6.1244827,1.8033778 6.1721317,1.776712 6.3058133,1.7019 7.0551419,1.5651791 7.519281,1.530914 7.7856677,1.511248 8.2204503,1.5110029 8.4854646,1.5303694 8.9440479,1.5638814 9.7009711,1.7016445 9.8332512,1.7756722 9.8782938,1.8008793 9.7550402,1.9225782 9.3786634,2.224526 8.7973707,2.6908671 8.8411497,2.6138172 8.5670878,3.6528786 L 8.4491693,4.0999473 H 7.9990896 7.54901 Z"
     id="path42" />
  <path
     style="fill:#ffffff;stroke-width:0.0279581;stroke-dasharray:none"
     d="M 1.7523884,6.2262497 C 1.9500508,5.5179113 2.3700865,4.6805372 2.8276267,4.0826776 3.1151878,3.7069266 3.5418989,3.2619989 3.5763185,3.3020236 c 0.016382,0.01905 0.052968,0.1916549 0.081302,0.3835673 0.028335,0.1919124 0.073233,0.4765098 0.099774,0.6324387 L 3.8056506,4.6015366 4.3223509,5.1258673 4.8390512,5.6501979 4.6112528,6.0433092 4.3834543,6.4364205 3.9472897,6.3165724 C 3.7073991,6.250656 3.3798325,6.1686315 3.2193637,6.1342957 L 2.9276024,6.0718671 2.3114918,6.3071681 c -0.3388609,0.1294155 -0.6231383,0.235301 -0.6317277,0.235301 -0.00859,0 0.024092,-0.1422987 0.072624,-0.3162194 z"
     id="path43" />
  <path
     style="fill:#ffffff;stroke-width:0.0279581;stroke-dasharray:none"
     d="M 3.35481,12.530291 C 2.7201317,11.866643 2.2453317,11.121297 1.9299199,10.293485 1.784552,9.9119601 1.656709,9.4646525 1.6932164,9.4652867 1.709515,9.4655699 1.9773368,9.5637069 2.288376,9.683369 2.5994152,9.8030312 2.9232674,9.9001003 3.0080476,9.8990784 3.0928278,9.8980564 3.4369771,9.8225589 3.7728238,9.731306 L 4.3834543,9.5653918 4.6144174,9.9595393 4.8453805,10.353687 4.3222628,10.879696 3.7991451,11.405704 3.7079377,11.994527 C 3.582749,12.802727 3.596052,12.782544 3.35481,12.530291 Z"
     id="path44" />
  <path
     style="fill:#ffffff;stroke-width:0.0279581;stroke-dasharray:none"
     d="m 7.0876748,14.435386 c -0.3030854,-0.04605 -0.8470659,-0.17121 -0.9273616,-0.213372 -0.035078,-0.01842 0.1276619,-0.176676 0.4488102,-0.43645 0.2771135,-0.224155 0.5221541,-0.441769 0.5445348,-0.483588 0.034931,-0.06527 0.1398543,-0.431816 0.3461637,-1.209312 l 0.049188,-0.18537 h 0.4562916 c 0.2509605,0 0.4562917,0.0087 0.4562917,0.01943 0,0.06514 0.3462925,1.289867 0.3853445,1.362836 0.026185,0.04893 0.2730882,0.272909 0.5486736,0.497737 0.3082044,0.251439 0.4808995,0.41989 0.4486743,0.43765 -0.028815,0.01588 -0.2486644,0.07277 -0.4885549,0.126432 -0.3432256,0.07677 -0.603455,0.100352 -1.2212609,0.110663 -0.431803,0.0072 -0.9028608,-0.0048 -1.0467951,-0.02666 z"
     id="path45" />
  <path
     style="fill:#ffffff;stroke-width:0.0279581;stroke-dasharray:none"
     d="m 12.414994,12.69239 c -0.02257,-0.06316 -0.202385,-1.166472 -0.202385,-1.241823 0,-0.0204 -0.237238,-0.277052 -0.527195,-0.570346 L 11.15822,10.346958 11.38798,9.9538747 c 0.126368,-0.2161961 0.250748,-0.3862645 0.2764,-0.3779299 0.339395,0.110274 1.224032,0.3248709 1.337597,0.3244769 0.08161,-2.832e-4 0.402174,-0.098152 0.71236,-0.2174871 0.310186,-0.1193348 0.574031,-0.2069158 0.586322,-0.1946246 0.01229,0.012291 -0.02221,0.1739495 -0.07667,0.3592406 -0.275098,0.9359734 -0.815651,1.8692194 -1.521462,2.6267574 -0.189783,0.203691 -0.270732,0.265088 -0.287532,0.218082 z"
     id="path46" />
  <path
     style="fill:#ffffff;stroke-width:0.0279581;stroke-dasharray:none"
     d="M 13.663604,6.298461 13.042816,6.0627766 12.356544,6.2393987 c -0.37745,0.097142 -0.695327,0.185677 -0.706394,0.1967439 -0.01107,0.011067 -0.125697,-0.159563 -0.254733,-0.3791776 l -0.23461,-0.3992993 0.520189,-0.5280646 0.520189,-0.5280645 0.103678,-0.665151 c 0.05702,-0.3658331 0.117214,-0.6651511 0.13376,-0.6651511 0.05495,0 0.606976,0.6358437 0.863144,0.9942089 0.138807,0.1941837 0.352845,0.5486535 0.47564,0.7877107 0.225308,0.438627 0.545699,1.3140397 0.520575,1.4223798 -0.01002,0.043216 -0.176656,-0.0033 -0.634378,-0.1770729 z"
     id="path47" />
</svg>
